<svg width="186" height="55" viewBox="0 0 186 55" fill="none" xmlns="http://www.w3.org/2000/svg">
<g clip-path="url(#clip0_7111_868)">
<path fill-rule="evenodd" clip-rule="evenodd" d="M149.364 14.3325C148.573 14.3325 148.189 14.4483 148.013 14.6208C147.807 14.7933 147.751 15.1406 147.751 15.715V22.5983H148.542C149.803 22.5983 150.772 22.3973 151.42 21.8492C152.389 21.0434 152.799 19.9493 152.799 18.4796C152.797 15.4267 151.007 14.3325 149.364 14.3325ZM173.295 17.9926C172.444 20.0672 171.62 21.9977 170.885 24.1029H175.558L173.295 17.9926ZM100.848 17.9926C99.9944 20.0672 99.1721 21.9977 98.4374 24.1029H103.111L100.848 17.9926ZM175.352 12.6314C177.234 17.6454 179.232 22.7773 181.142 27.5904C182.23 30.2699 182.493 30.4731 184.403 30.7045V31.7702H175.881V30.7045C177.732 30.4446 177.732 30.128 177.319 28.8876C177.025 28.0228 176.556 26.7256 176.116 25.5726H170.387C170.064 26.4658 169.652 27.562 169.358 28.4552C168.742 30.2699 169.446 30.5014 171.769 30.7045V31.7702H164.51V30.7045C166.361 30.4731 166.832 30.2153 167.83 27.7935L173.942 12.8935L175.352 12.6314ZM124.577 13.1228V14.184C122.614 14.4418 122.671 14.8152 123.168 15.8198C124.136 17.6847 125.397 19.9799 126.509 22.0741C127.388 20.4669 128.793 17.7131 129.614 15.9639C130.171 14.8174 129.936 14.4439 127.826 14.1863V13.1228H134.655V14.184C132.781 14.385 132.105 14.7868 131.05 16.5361C130.915 16.7675 130.778 16.9946 130.647 17.2217L130.476 17.5144C129.642 18.9448 128.822 20.4254 127.651 22.7621C127.416 23.2206 127.329 23.5657 127.329 24.282V27.8394C127.329 30.3354 127.563 30.4206 129.967 30.7089V31.7702H120.705V30.7089C122.997 30.425 123.221 30.3376 123.226 27.9158V24.5418C123.226 23.9107 123.107 23.6224 122.903 23.2228C122.052 21.5304 120.969 19.6086 119.21 16.595C118.126 14.73 117.686 14.3566 115.986 14.1863V13.1228H124.577ZM102.904 12.6314C104.784 17.6454 106.784 22.7773 108.695 27.5904C109.782 30.2699 110.048 30.4731 111.956 30.7045V31.7702H103.433V30.7045C105.284 30.4446 105.284 30.128 104.874 28.8876C104.58 28.0228 104.111 26.7256 103.67 25.5726H97.9398C97.6151 26.4658 97.2051 27.562 96.9114 28.4552C96.2945 30.2699 96.999 30.5014 99.3209 30.7045V31.7702H92.0622V30.7045C93.9129 30.4731 94.3849 30.2153 95.3823 27.7935L101.495 12.8935L102.904 12.6314ZM73.2875 13.1228V14.184C71.0769 14.385 70.8445 14.5859 70.8445 16.9662V21.0696H78.6958V16.9662C78.6958 14.5859 78.4036 14.4134 76.224 14.184V13.1228H85.2089V14.184C82.9653 14.4112 82.7421 14.5815 82.7374 16.892V27.9529C82.7374 30.3333 82.9699 30.5058 85.2089 30.7067V31.768H76.224V30.7067C78.4982 30.4228 78.6912 30.3354 78.6958 28.0272V22.5612H70.8445V27.9551C70.8445 30.3354 71.1054 30.4795 73.2875 30.7089V31.7702H64.331V30.7089C66.4605 30.4818 66.796 30.3398 66.8026 28.0315V16.9684C66.8026 14.5859 66.5416 14.3566 64.331 14.184V13.1228H73.2875ZM149.775 13.1228C152.387 13.1228 153.885 13.411 155.088 14.2168C156.262 14.9943 157.055 16.2609 157.055 18.0472C157.055 20.611 155.323 21.9628 153.386 22.7118C153.827 23.5766 154.972 25.4481 155.852 26.7715C156.88 28.3547 157.525 29.1322 158.082 29.7655C158.757 30.5145 159.08 30.7438 159.931 31.0321L159.724 32.0104H159.645C159.455 32.0104 159.15 32.006 158.845 31.982C155.117 31.8095 154.031 31.0321 153.15 29.8222C151.977 28.239 151.123 26.481 150.128 24.7537C149.687 23.9763 149.277 23.8037 148.338 23.8037L147.751 23.7753V27.9835C147.751 30.3158 148.044 30.5189 150.246 30.7765V31.8423H141.263V30.7765C143.47 30.5494 143.752 30.3201 143.757 28.0577V16.9531C143.757 14.6776 143.463 14.361 141.263 14.1885V13.1228H149.775Z" fill="#AE9B31"/>
<path d="M66.6238 38.181C66.574 37.7941 66.5428 37.5484 66.5179 37.3335C66.2812 37.2598 66.0195 37.1923 65.7329 37.1923C64.9292 37.1923 64.4495 37.6959 64.4495 38.2853C64.4495 38.9793 65.0787 39.2802 65.4774 39.4951C65.9447 39.7408 66.2874 39.9557 66.2874 40.4102C66.2874 40.8584 66.0133 41.1471 65.5397 41.1471C64.8918 41.1471 64.6114 40.5268 64.518 40.1522L64.331 40.1952C64.3747 40.49 64.4557 41.0182 64.4993 41.1471C64.5616 41.1778 64.655 41.2269 64.8108 41.276C64.9603 41.3191 65.166 41.3682 65.4214 41.3682C66.25 41.3682 66.8045 40.8523 66.8045 40.2075C66.8045 39.5136 66.2189 39.2311 65.7267 38.9793C65.2345 38.7337 64.9354 38.5187 64.9354 38.0705C64.9354 37.7388 65.1472 37.4011 65.627 37.4011C66.169 37.4011 66.3372 37.8248 66.4431 38.2117L66.6238 38.181Z" fill="#222222"/>
<path d="M72.204 37.1923C70.8893 37.1923 70.1043 38.2178 70.1043 39.3232C70.1043 40.5084 71.0015 41.3682 72.1292 41.3682C73.2693 41.3682 74.2101 40.5575 74.2101 39.2311C74.2101 37.9968 73.2569 37.1923 72.204 37.1923ZM72.0669 37.4134C72.8893 37.4134 73.5746 38.1012 73.5746 39.3969C73.5746 40.5759 72.9578 41.1471 72.26 41.1471C71.3815 41.1471 70.7398 40.3058 70.7398 39.1512C70.7398 37.9967 71.3752 37.4134 72.0669 37.4134Z" fill="#222222"/>
<path d="M81.2231 40.2013C80.9115 40.8093 80.5752 41.1471 79.9397 41.1471C78.9926 41.1471 78.3075 40.3611 78.3075 39.2126C78.3075 38.2792 78.8617 37.4134 79.9025 37.4134C80.5752 37.4134 80.9495 37.6774 81.1177 38.3284L81.2983 38.2792C81.2603 37.9537 81.2231 37.702 81.1735 37.3581C80.9991 37.3274 80.5752 37.1923 80.0707 37.1923C78.6811 37.1923 77.672 38.0398 77.672 39.3355C77.672 40.3119 78.3509 41.3682 79.9025 41.3682C80.3512 41.3682 80.8743 41.2453 81.0487 41.2085C81.1611 40.9997 81.3169 40.5452 81.4037 40.2628L81.2231 40.2013Z" fill="#222222"/>
<path d="M86.2327 41.276V41.1041C85.722 41.0673 85.6716 41.0366 85.6716 40.5084V38.052C85.6716 37.53 85.722 37.4932 86.2327 37.4563V37.2843H84.5819V37.4563C85.0927 37.4932 85.1423 37.53 85.1423 38.052V40.5084C85.1423 41.0304 85.0927 41.0673 84.5819 41.1041V41.276H86.2327Z" fill="#222222"/>
<path d="M93.2341 41.276V41.1041C92.8287 41.0673 92.7419 41.012 92.5482 40.4838C92.1498 39.4153 91.7321 38.2424 91.3461 37.1923L91.1532 37.2475L89.8636 40.4654C89.6512 41.012 89.5644 41.0488 89.1653 41.1041V41.276H90.5239V41.1041C90.0504 41.0611 90 40.9997 90.1309 40.6128C90.2123 40.3549 90.3053 40.097 90.4053 39.8206H91.7321C91.8693 40.1952 91.9941 40.5268 92.0746 40.7663C92.156 41.0059 92.1002 41.055 91.7073 41.1041V41.276H93.2341ZM91.6453 39.5565H90.4991C90.6921 39.053 90.885 38.5126 91.0842 37.9906H91.0966L91.6453 39.5565Z" fill="#222222"/>
<path d="M99.2364 40.2751C99.1426 40.5575 99.0303 40.7541 98.9187 40.8769C98.7753 41.0366 98.5629 41.0673 98.2204 41.0673C97.9592 41.0673 97.7469 41.055 97.6229 40.9875C97.5105 40.926 97.4795 40.8032 97.4795 40.4716V38.0459C97.4795 37.5177 97.5353 37.4932 98.0274 37.4563V37.2843H96.4015V37.4563C96.9122 37.4932 96.9494 37.5239 96.9494 38.0459V40.5023C96.9494 41.0243 96.8998 41.0673 96.3767 41.1041V41.276H99.1984C99.255 41.0857 99.386 40.5023 99.4232 40.3119L99.2364 40.2751Z" fill="#222222"/>
<path d="M108.898 37.1923C107.582 37.1923 106.797 38.2178 106.797 39.3232C106.797 40.5084 107.695 41.3682 108.822 41.3682C109.962 41.3682 110.903 40.5575 110.903 39.2311C110.903 37.9968 109.95 37.1923 108.898 37.1923ZM108.76 37.4134C109.583 37.4134 110.268 38.1012 110.268 39.3969C110.268 40.5759 109.651 41.1471 108.953 41.1471C108.075 41.1471 107.433 40.3058 107.433 39.1512C107.433 37.9967 108.068 37.4134 108.76 37.4134Z" fill="#222222"/>
<path d="M117.858 41.1655C117.721 41.1287 117.571 41.0611 117.409 40.8769C117.254 40.7172 117.13 40.5575 116.905 40.2382C116.718 39.9619 116.456 39.5504 116.351 39.3539C116.806 39.1512 117.142 38.8258 117.142 38.2976C117.142 37.9292 116.98 37.6528 116.724 37.4932C116.494 37.3397 116.189 37.2843 115.734 37.2843H114.188V37.4563C114.674 37.4993 114.724 37.5177 114.724 38.0398V40.5084C114.724 41.0304 114.674 41.0673 114.164 41.1041V41.276H115.796V41.1041C115.304 41.0673 115.248 41.0304 115.248 40.5084V39.532H115.447C115.765 39.532 115.871 39.6057 115.976 39.7776C116.163 40.0786 116.388 40.4593 116.606 40.7602C116.886 41.1594 117.142 41.2945 117.616 41.3191C117.684 41.3252 117.759 41.3252 117.833 41.3252L117.858 41.1655ZM115.248 39.3355V37.8187C115.248 37.6467 115.267 37.5791 115.316 37.5484C115.366 37.5116 115.472 37.487 115.652 37.487C116.12 37.487 116.562 37.7327 116.562 38.3959C116.562 38.7275 116.462 38.9732 116.22 39.1574C116.064 39.2863 115.859 39.3355 115.547 39.3355H115.248Z" fill="#222222"/>
<path d="M124.863 39.4215H123.28V39.5934C123.897 39.6364 123.935 39.6794 123.935 40.1215V40.6435C123.935 40.9014 123.86 40.9813 123.735 41.0488C123.598 41.1164 123.405 41.1532 123.193 41.1532C121.99 41.1532 121.461 40.1215 121.461 39.2311C121.461 38.1012 122.159 37.4072 123.112 37.4072C123.71 37.4072 124.177 37.6098 124.327 38.3652L124.501 38.3284C124.458 37.923 124.427 37.5853 124.408 37.3704C124.202 37.3274 123.729 37.1923 123.206 37.1923C121.984 37.1923 120.826 37.8862 120.826 39.3048C120.826 40.5268 121.742 41.3682 123.112 41.3682C123.611 41.3682 124.122 41.233 124.508 41.1471C124.47 40.9752 124.464 40.7786 124.464 40.5637V40.0356C124.464 39.6733 124.489 39.6426 124.863 39.5934V39.4215Z" fill="#222222"/>
<path d="M132.002 41.276V41.1041C131.597 41.0673 131.51 41.012 131.317 40.4838C130.918 39.4153 130.501 38.2424 130.114 37.1923L129.921 37.2475L128.631 40.4654C128.42 41.012 128.332 41.0488 127.933 41.1041V41.276H129.292V41.1041C128.818 41.0611 128.769 40.9997 128.9 40.6128C128.98 40.3549 129.074 40.097 129.173 39.8206H130.501C130.637 40.1952 130.762 40.5268 130.843 40.7663C130.924 41.0059 130.868 41.055 130.475 41.1041V41.276H132.002ZM130.413 39.5565H129.267C129.46 39.053 129.653 38.5126 129.853 37.9906H129.865L130.413 39.5565Z" fill="#222222"/>
<path d="M139.4 37.2843H137.93V37.4563C138.365 37.4748 138.509 37.5546 138.54 37.8371C138.565 38.009 138.584 38.2853 138.584 38.8565V40.3672H138.565L135.961 37.2843H135.045V37.4563C135.337 37.4809 135.468 37.53 135.599 37.6836C135.712 37.8248 135.724 37.8555 135.724 38.3038V39.6548C135.724 40.2136 135.706 40.5145 135.686 40.705C135.655 41.0059 135.493 41.0857 135.138 41.1041V41.276H136.615V41.1041C136.192 41.0795 136.048 41.0059 136.017 40.6927C135.998 40.5145 135.979 40.2198 135.979 39.6548V38.1134H135.992L138.646 41.3313H138.839V38.8565C138.839 38.2853 138.851 38.009 138.876 37.8187C138.902 37.5546 139.051 37.4748 139.4 37.4563V37.2843Z" fill="#222222"/>
<path d="M144.242 41.276V41.1041C143.731 41.0673 143.681 41.0366 143.681 40.5084V38.052C143.681 37.53 143.731 37.4932 144.242 37.4563V37.2843H142.591V37.4563C143.101 37.4932 143.152 37.53 143.152 38.052V40.5084C143.152 41.0304 143.101 41.0673 142.591 41.1041V41.276H144.242Z" fill="#222222"/>
<path d="M150.776 40.1952C150.664 40.4961 150.565 40.6927 150.434 40.8277C150.259 41.012 150.028 41.055 149.25 41.055C148.82 41.055 148.433 41.0427 148.234 41.0182C149.088 39.7715 149.942 38.5801 150.807 37.3704L150.764 37.2844H148.278C148.091 37.2844 148.023 37.2721 147.947 37.1309H147.798C147.786 37.4072 147.755 37.8678 147.724 38.2546L147.904 38.2608C147.979 37.9906 148.047 37.8371 148.122 37.7266C148.228 37.5607 148.328 37.5055 149.001 37.5055H150.079C149.212 38.7521 148.334 39.968 147.462 41.1839L147.512 41.2761H150.733C150.801 41.0243 150.913 40.4531 150.957 40.232L150.776 40.1952Z" fill="#222222"/>
<path d="M158.105 41.276V41.1041C157.7 41.0673 157.613 41.012 157.42 40.4838C157.02 39.4153 156.603 38.2424 156.217 37.1923L156.024 37.2475L154.734 40.4654C154.523 41.012 154.435 41.0488 154.037 41.1041V41.276H155.394V41.1041C154.921 41.0611 154.871 40.9997 155.002 40.6128C155.083 40.3549 155.177 40.097 155.276 39.8206H156.603C156.741 40.1952 156.865 40.5268 156.946 40.7663C157.027 41.0059 156.971 41.055 156.579 41.1041V41.276H158.105ZM156.516 39.5565H155.37C155.563 39.053 155.756 38.5126 155.956 37.9906H155.968L156.516 39.5565Z" fill="#222222"/>
<path d="M164.298 38.2178C164.26 37.8616 164.236 37.4134 164.229 37.1309H164.098C164.005 37.2475 163.955 37.2844 163.787 37.2844H161.326C161.151 37.2844 161.071 37.2721 160.983 37.1309H160.859C160.846 37.4686 160.815 37.8678 160.784 38.2362H160.964C161.04 37.966 161.089 37.788 161.164 37.6836C161.245 37.5484 161.37 37.4932 161.887 37.4932H162.273V40.5207C162.273 41.0059 162.223 41.0673 161.656 41.1041V41.2761H163.438V41.1041C162.852 41.0673 162.803 41.0059 162.803 40.5207V37.4932H163.239C163.713 37.4932 163.812 37.5423 163.918 37.6897C163.986 37.788 164.049 37.9414 164.111 38.2362L164.298 38.2178Z" fill="#222222"/>
<path d="M169.146 41.276V41.1041C168.635 41.0673 168.586 41.0366 168.586 40.5084V38.052C168.586 37.53 168.635 37.4932 169.146 37.4563V37.2843H167.495V37.4563C168.006 37.4932 168.056 37.53 168.056 38.052V40.5084C168.056 41.0304 168.006 41.0673 167.495 41.1041V41.276H169.146Z" fill="#222222"/>
<path d="M174.487 37.1923C173.171 37.1923 172.386 38.2178 172.386 39.3232C172.386 40.5084 173.284 41.3682 174.411 41.3682C175.551 41.3682 176.492 40.5575 176.492 39.2311C176.492 37.9968 175.539 37.1923 174.487 37.1923ZM174.349 37.4134C175.172 37.4134 175.857 38.1012 175.857 39.3969C175.857 40.5759 175.24 41.1471 174.542 41.1471C173.664 41.1471 173.022 40.3058 173.022 39.1512C173.022 37.9967 173.657 37.4134 174.349 37.4134Z" fill="#222222"/>
<path d="M183.996 37.2843H182.525V37.4563C182.961 37.4748 183.105 37.5546 183.136 37.8371C183.16 38.009 183.179 38.2853 183.179 38.8565V40.3672H183.16L180.556 37.2843H179.64V37.4563C179.933 37.4809 180.064 37.53 180.195 37.6836C180.307 37.8248 180.319 37.8555 180.319 38.3038V39.6548C180.319 40.2136 180.301 40.5145 180.282 40.705C180.251 41.0059 180.089 41.0857 179.734 41.1041V41.276H181.211V41.1041C180.787 41.0795 180.643 41.0059 180.612 40.6927C180.594 40.5145 180.575 40.2198 180.575 39.6548V38.1134H180.587L183.242 41.3313H183.435V38.8565C183.435 38.2853 183.447 38.009 183.472 37.8187C183.497 37.5546 183.646 37.4748 183.996 37.4563V37.2843Z" fill="#222222"/>
<path fill-rule="evenodd" clip-rule="evenodd" d="M22.11 0L22.1176 0.0678169C22.5041 3.27329 22.6973 5.18422 22.6973 5.7991C22.6973 7.12077 21.9781 8.30378 21.7956 9.17484C21.6775 9.74004 21.5135 10.2976 21.4168 10.8658C21.3785 11.0873 21.3309 11.3088 21.2819 11.5319L21.2404 11.7232C21.1392 12.201 21.0533 12.6818 21.0902 13.1625C21.1408 13.8241 21.2052 14.4857 21.2681 15.1473C21.3048 15.5436 21.3877 15.9369 21.3877 16.3333C21.3877 16.909 21.3355 17.4847 21.2987 18.0604C21.2619 18.6361 21.219 19.2118 21.1699 19.7875C21.1301 20.2531 21.2221 20.7007 21.3693 21.1378C21.4505 21.3774 21.6454 21.5161 21.9014 21.5598C22.1438 21.6004 22.3477 21.4994 22.4581 21.3081C22.5517 21.1453 22.5961 20.9419 22.6146 20.752C22.6498 20.3888 22.613 20.018 22.6744 19.6609C22.7542 19.1922 22.8507 18.725 22.9489 18.2593L23.0685 17.7002C23.0884 17.6068 23.1084 17.5133 23.1283 17.4199C23.1529 17.3054 23.1973 17.1968 23.2326 17.0854C23.251 17.0868 23.2694 17.0883 23.2878 17.0883C23.2939 17.1923 23.3154 17.2978 23.3032 17.4003C23.2863 17.5571 23.2372 17.7092 23.2173 17.866C23.1482 18.3724 23.0854 18.8787 23.021 19.3866L22.9121 20.2381C22.8753 20.5214 22.84 20.8047 22.8078 21.0895C22.7219 21.8355 22.6376 22.583 22.564 23.3305C22.5287 23.6922 22.8216 24.0388 23.2065 24.1141C23.5991 24.1911 23.938 24.0057 24.0577 23.6319C24.0991 23.5038 24.1006 23.3637 24.1251 23.2311C24.1804 22.9266 24.234 22.6222 24.2954 22.3193C24.3169 22.2138 24.3659 22.1128 24.3905 22.0073C24.5301 21.4241 24.665 20.8409 24.8046 20.2576C24.8184 20.2019 25.4042 18.4658 25.4288 18.413C25.4502 18.419 25.4333 18.4251 25.4548 18.4311C25.4272 18.6436 25.2892 19.2163 25.1435 19.8161L25.1082 19.9608L25.0791 20.0783C24.9303 20.6887 24.7892 21.2749 24.7585 21.4889C24.7125 21.8129 24.6573 22.1354 24.5975 22.4564C24.4856 23.0517 24.3598 23.644 24.254 24.2393C24.1957 24.5648 24.3169 24.8346 24.6006 25.0154C24.8812 25.1947 25.1726 25.1676 25.4532 25.0048C25.7646 24.824 25.8903 24.5316 25.9701 24.2001C26.056 23.8429 26.2247 23.323 26.3274 22.8452C26.4287 22.2816 26.5544 21.5793 26.6801 20.8906L26.7047 20.7535C26.9255 19.5373 27.1387 18.3889 27.1985 18.1237C27.2123 18.0604 27.2629 18.0046 27.3074 17.9518C27.286 18.2322 27.0728 19.3489 26.8335 20.5501L26.8075 20.6841C26.7983 20.7293 26.789 20.773 26.7798 20.8183L26.7446 20.9916C26.7384 21.0202 26.7323 21.0489 26.7277 21.0775L26.6924 21.2508L26.6571 21.4226C26.5559 21.9245 26.4562 22.4098 26.3704 22.8226C26.3366 22.9733 26.332 23.0833 26.3596 23.1527C26.602 23.7766 27.335 23.6424 27.7107 23.2537C27.9638 22.9929 28.0665 22.6689 28.1524 22.3359L28.1816 22.2244C28.2199 22.0752 28.2567 21.926 28.3058 21.7813C28.5481 21.0594 28.7965 20.3089 28.933 19.5599C29.0818 18.74 29.2673 17.9518 29.3747 17.126C29.4329 16.6724 29.4606 16.2113 29.5664 15.7682C29.591 15.6672 29.6155 15.5677 29.6416 15.4683L29.7182 15.1684C29.8379 14.7027 29.9452 14.2355 29.9452 13.7488C29.9452 13.6794 29.9529 13.6086 29.959 13.5121C30.0878 13.711 30.2182 13.8648 30.2964 14.0411C30.3946 14.2656 30.4789 14.4947 30.5617 14.7268L30.6599 15.0041C30.7902 15.3688 31.0341 15.6612 31.2917 15.94C31.439 16.0997 31.6491 16.2022 31.8684 16.2233C32.0248 16.2368 32.2057 16.1977 32.3469 16.1313C32.4358 16.0892 32.5171 16.0229 32.5554 15.9324L32.5584 15.9249C32.6106 15.7938 32.56 15.6536 32.5293 15.5241C32.491 15.3658 32.4511 15.2076 32.3944 15.0524C32.2993 14.7886 32.2211 14.5128 32.2701 14.231C32.2916 14.1104 32.2824 13.9838 32.3039 13.8633C32.3607 13.5528 32.376 13.2484 32.2471 12.9485C32.1014 12.6064 31.9496 12.2673 31.8177 11.9207C31.6766 11.5485 31.534 11.1792 31.511 10.7724C31.4926 10.468 31.4006 10.165 31.1813 9.9314C30.9865 9.72492 30.778 9.526 30.5556 9.34817C30.3071 9.14925 30.0096 8.86142 29.7198 8.55999L29.64 8.4771L29.6017 8.43944L29.5311 8.36558C28.9944 7.79594 28.5251 7.23983 28.4929 7.20215C28.2138 6.86006 28.2398 6.23162 28.154 5.80061C28.1417 5.74032 28.1355 5.62127 28.1355 5.44343V5.38466C28.1371 4.59798 28.2367 2.8031 28.4316 0H51.0691V3.15424L48.9312 3.81433C47.0342 4.40057 45.7383 6.11558 45.7107 8.06415V47.3226C45.7107 49.3572 47.094 51.1385 49.0846 51.6795L49.1459 51.696L51.0691 52.1919V55.1577H31.0617C30.9912 53.818 30.939 52.864 30.9022 52.2929C30.8807 51.9658 30.8546 51.2183 30.8316 50.8913C30.7933 50.3518 30.7289 49.8108 30.7212 49.2712C30.7136 48.6865 30.6092 47.9903 30.6844 47.4115C30.7595 46.8374 30.916 46.2707 31.0601 45.7071C31.1889 45.2053 31.3945 44.7697 31.4803 44.2965C31.7288 42.9311 31.4803 40.4445 31.4803 39.159C31.4803 38.2954 31.1368 36.7085 30.9835 36.0801C30.9267 35.4245 30.7457 34.3063 30.4405 32.7269C30.3715 32.2417 30.2013 31.9463 29.9299 31.8423C29.5219 31.6841 29.249 31.7895 29.249 32.4014C29.249 32.4481 29.3088 33.0736 29.3532 33.7427L29.3594 33.8452C29.3809 34.1903 29.3961 34.5384 29.3961 34.8187C29.3961 35.194 29.3778 35.9008 29.3425 36.9391C29.3088 36.9632 29.2781 36.9843 29.249 37.0024C29.2397 36.8954 29.0925 32.4978 29.0879 32.4014C29.0649 31.886 29.0174 31.4867 28.9928 30.9712C28.9821 30.7422 28.8932 30.4423 28.7 30.3111C28.4361 30.1333 28.1447 30.1213 27.861 30.2614C27.6202 30.3805 27.5819 30.6638 27.5865 30.9154C27.5957 31.4715 27.6601 31.8453 27.6479 32.3999C27.6463 32.5024 27.6294 33.3509 27.605 34.2777L27.6019 34.3892C27.6003 34.463 27.5973 34.5384 27.5957 34.6137L27.5911 34.7479C27.5574 35.8842 27.5099 36.9723 27.4562 36.817C27.4148 36.6949 27.3979 35.8465 27.3887 34.9212L27.3872 34.8097V34.7539L27.3841 34.5007V34.4374L27.3825 34.3124C27.3764 33.7276 27.3718 33.17 27.3626 32.8038C27.3534 32.4255 27.2736 31.9613 27.2736 31.8393C27.2736 31.2681 27.2798 30.697 27.2706 30.1258C27.2645 29.6933 27.0513 29.2532 26.6112 29.2396C26.1189 29.2261 25.7247 29.6646 25.6895 30.1017C25.668 30.3594 25.6373 30.593 25.6235 30.8522C25.6127 31.039 25.5637 31.9629 25.5759 32.314C25.5883 32.6637 25.6127 33.5874 25.6235 33.8949C25.6389 34.3982 25.6465 34.8594 25.6465 35.2708V35.3989C25.645 36.4946 25.5959 37.2089 25.5391 37.3927C25.5131 37.3942 25.4916 37.2616 25.4594 36.817C25.4563 36.7748 25.4518 36.7221 25.4471 36.6618L25.441 36.5849C25.4195 36.3182 25.3888 35.9324 25.3567 35.5315L25.3459 35.4019C25.3444 35.3839 25.3429 35.3673 25.3413 35.3492L25.3321 35.2437C25.2769 34.5806 25.2217 33.9446 25.2063 33.8045C25.1051 32.9138 25.0929 31.8529 25.0929 31.4836V31.3796C25.0929 30.8099 24.8782 30.4754 24.484 30.4543C24.0899 30.4332 23.8767 30.5794 23.6605 30.9667C23.5409 31.1822 23.5025 31.8122 23.4933 32.4798L23.4902 32.7314C23.4902 32.7752 23.4902 32.8174 23.4902 32.861V32.9892C23.4902 33.3509 23.4948 33.6945 23.4948 33.9597V35.6612C23.4948 35.964 23.6605 36.591 23.4948 37.8373C23.4581 38.1176 23.317 38.5803 23.0746 39.2238L23.0869 39.1906L23.0517 39.2268C22.8968 39.3775 22.7097 39.4724 22.5103 39.5116L22.4643 39.5192C22.0747 39.5779 22.13 39.5192 21.6223 39.1333C21.1147 38.7476 20.0534 37.9865 19.1272 37.8885C18.1042 37.78 17.7331 38.2307 17.7959 38.514C17.8589 38.7973 18.4171 39.0233 18.7714 39.1816C19.1256 39.3398 19.3909 39.7271 19.6931 40.1627C19.9568 40.5455 20.6485 41.0217 21.1116 41.6154C21.2941 41.8506 21.4276 42.045 21.5594 42.2318L21.6116 42.3057C21.8662 42.6598 22.1345 42.9914 22.7526 43.5083C23.6482 44.2558 24.1068 44.6311 24.4718 45.258C24.6159 45.5745 24.7248 45.9135 24.7739 46.1592C24.8597 46.5872 24.8659 47.1598 24.8797 47.4417C24.9226 48.3218 24.8705 48.8809 24.8644 49.761C24.8613 50.1785 24.8122 50.596 24.7739 51.0119C24.7248 51.5559 24.6696 52.5189 24.6098 53.0629C24.573 53.4065 24.5132 54.1073 24.4334 55.1638L0 55.1577V52.1949L2.03203 51.672C4.05639 51.1505 5.46731 49.3541 5.46731 47.2985V8.10188C5.46731 6.12763 4.16374 4.38097 2.24673 3.78871L0 3.09546V0H22.11Z" fill="#01753D"/>
</g>
<defs>
<clipPath id="clip0_7111_868">
<rect width="186" height="55" fill="white"/>
</clipPath>
</defs>
</svg>
